# xmcd
#
# Track frame offsets: 
#        150
#        28980
#        55993
#        85710
#        113155
#        141075
#        170968
#        197258
#        224635
#        251933
#        276600
#
# Disc length: 4046 seconds
#
# Revision: 0
# Processed by: cddbd v1.5.2PL0 Copyright (c) Steve Scherf et al.
# Submitted via: ExactAudioCopy v1.0b3
#
DISCID=b10fcc0b
DTITLE=Various Artist - Transit Vol. 07
DYEAR=1900
DGENRE=
TTITLE0=Stevie V - Push 2 The Limit (Digital Mix)
TTITLE1=Paris Red - Party (Digital Mix)
TTITLE2=DJ Bobo - Keep On Dancing (Digital Mix)
TTITLE3=M.C.Sar and The Real McCoy - Another Night (Digital Mix)
TTITLE4=Sonic Surfers - Shine On (Digital Mix)
TTITLE5=Miss Bliss - Best Thing (Digital Mix)
TTITLE6=Pyramide Club - Where Do We Go (Digital Mix)
TTITLE7=Twenty 4 Seven Feat. Stay-C and Nance - Slave To The Music (Digi
TTITLE7=tal Mix)
TTITLE8=Silvia Coleman - Allright (Digital Mix)
TTITLE9=Molella - Confusion (Digital Mix)
TTITLE10=Andromeda - We've Got To Live Together (Digital Mix)
EXTD=
EXTT0=
EXTT1=
EXTT2=
EXTT3=
EXTT4=
EXTT5=
EXTT6=
EXTT7=
EXTT8=
EXTT9=
EXTT10=
PLAYORDER=
